<mxfile host="app.diagrams.net" modified="2024-01-18T13:41:28.327Z" agent="Mozilla/5.0 (Windows NT 10.0; Win64; x64) AppleWebKit/537.36 (KHTML, like Gecko) Chrome/118.0.0.0 YaBrowser/23.11.0.0 Safari/537.36" etag="DNc0R2--X1KHVSJ7GHlJ" version="22.1.18" type="device">
  <diagram name="Страница — 1" id="tyqpiF4Y5xC0QDXwqoEw">
    <mxGraphModel dx="3249" dy="968" grid="1" gridSize="10" guides="1" tooltips="1" connect="1" arrows="1" fold="1" page="1" pageScale="1" pageWidth="827" pageHeight="1169" math="0" shadow="0">
      <root>
        <mxCell id="0" />
        <mxCell id="1" parent="0" />
        <mxCell id="f2Rdbqj7meqRXwNr7irH-36" value="" style="rounded=0;whiteSpace=wrap;html=1;" vertex="1" parent="1">
          <mxGeometry x="-290" y="110" width="1060" height="620" as="geometry" />
        </mxCell>
        <mxCell id="f2Rdbqj7meqRXwNr7irH-10" value="Kali Linux" style="swimlane;whiteSpace=wrap;html=1;" vertex="1" parent="1">
          <mxGeometry x="-160" y="400" width="200" height="190" as="geometry" />
        </mxCell>
        <mxCell id="f2Rdbqj7meqRXwNr7irH-2" value="" style="verticalLabelPosition=bottom;sketch=0;aspect=fixed;html=1;verticalAlign=top;strokeColor=none;align=center;outlineConnect=0;shape=mxgraph.citrix.desktop;" vertex="1" parent="f2Rdbqj7meqRXwNr7irH-10">
          <mxGeometry x="109.16" y="30" width="70.84" height="78" as="geometry" />
        </mxCell>
        <mxCell id="f2Rdbqj7meqRXwNr7irH-12" value="user-1" style="swimlane;whiteSpace=wrap;html=1;" vertex="1" parent="1">
          <mxGeometry x="390" y="400" width="200" height="190" as="geometry" />
        </mxCell>
        <mxCell id="f2Rdbqj7meqRXwNr7irH-17" value="" style="verticalLabelPosition=bottom;sketch=0;aspect=fixed;html=1;verticalAlign=top;strokeColor=none;align=center;outlineConnect=0;shape=mxgraph.citrix.desktop;" vertex="1" parent="f2Rdbqj7meqRXwNr7irH-12">
          <mxGeometry x="20" y="30" width="70.84" height="78" as="geometry" />
        </mxCell>
        <mxCell id="f2Rdbqj7meqRXwNr7irH-21" value="python3 веб-сервер на 127.0.0.1:8080" style="rounded=1;whiteSpace=wrap;html=1;" vertex="1" parent="f2Rdbqj7meqRXwNr7irH-12">
          <mxGeometry x="70" y="130" width="120" height="50" as="geometry" />
        </mxCell>
        <mxCell id="f2Rdbqj7meqRXwNr7irH-22" value="" style="endArrow=none;html=1;rounded=0;" edge="1" parent="f2Rdbqj7meqRXwNr7irH-12" target="f2Rdbqj7meqRXwNr7irH-17">
          <mxGeometry width="50" height="50" relative="1" as="geometry">
            <mxPoint x="130" y="69" as="sourcePoint" />
            <mxPoint x="170" y="70" as="targetPoint" />
          </mxGeometry>
        </mxCell>
        <mxCell id="f2Rdbqj7meqRXwNr7irH-23" value="" style="endArrow=none;html=1;rounded=0;exitX=0.5;exitY=0;exitDx=0;exitDy=0;" edge="1" parent="f2Rdbqj7meqRXwNr7irH-12" source="f2Rdbqj7meqRXwNr7irH-21">
          <mxGeometry width="50" height="50" relative="1" as="geometry">
            <mxPoint x="80" y="120" as="sourcePoint" />
            <mxPoint x="130" y="70" as="targetPoint" />
          </mxGeometry>
        </mxCell>
        <mxCell id="f2Rdbqj7meqRXwNr7irH-18" value="" style="endArrow=none;html=1;rounded=0;" edge="1" parent="1" source="f2Rdbqj7meqRXwNr7irH-2" target="f2Rdbqj7meqRXwNr7irH-17">
          <mxGeometry width="50" height="50" relative="1" as="geometry">
            <mxPoint x="170" y="560" as="sourcePoint" />
            <mxPoint x="220" y="510" as="targetPoint" />
          </mxGeometry>
        </mxCell>
        <mxCell id="f2Rdbqj7meqRXwNr7irH-19" value="10.10.10.1:8000" style="text;html=1;strokeColor=none;fillColor=none;align=center;verticalAlign=middle;whiteSpace=wrap;rounded=0;" vertex="1" parent="1">
          <mxGeometry x="40" y="470" width="100" height="30" as="geometry" />
        </mxCell>
        <mxCell id="f2Rdbqj7meqRXwNr7irH-20" value="10.10.10.2" style="text;html=1;strokeColor=none;fillColor=none;align=center;verticalAlign=middle;whiteSpace=wrap;rounded=0;" vertex="1" parent="1">
          <mxGeometry x="290" y="440" width="100" height="30" as="geometry" />
        </mxCell>
        <mxCell id="f2Rdbqj7meqRXwNr7irH-24" value="&lt;span style=&quot;font-family: Helvetica; font-size: 12px; font-style: normal; font-variant-ligatures: normal; font-variant-caps: normal; letter-spacing: normal; orphans: 2; text-indent: 0px; text-transform: none; widows: 2; word-spacing: 0px; -webkit-text-stroke-width: 0px; text-decoration-thickness: initial; text-decoration-style: initial; text-decoration-color: initial; float: none; background-color: rgb(153, 255, 51); display: inline !important;&quot;&gt;&lt;b&gt;ssh -L &lt;font color=&quot;#ff0000&quot;&gt;local_ip:local_port&lt;/font&gt;:&lt;font color=&quot;#0000ff&quot;&gt;remote_ip:remote_port&lt;/font&gt; remote_user@&lt;font color=&quot;#ff00ff&quot;&gt;victim-IP&lt;/font&gt;&lt;/b&gt;&lt;/span&gt;" style="text;whiteSpace=wrap;html=1;fillColor=#99FF33;strokeColor=#82b366;align=center;verticalAlign=middle;" vertex="1" parent="1">
          <mxGeometry x="19" y="239" width="520" height="50" as="geometry" />
        </mxCell>
        <mxCell id="f2Rdbqj7meqRXwNr7irH-26" value="" style="endArrow=classic;html=1;rounded=0;" edge="1" parent="1">
          <mxGeometry width="50" height="50" relative="1" as="geometry">
            <mxPoint x="99" y="329" as="sourcePoint" />
            <mxPoint x="149" y="279" as="targetPoint" />
          </mxGeometry>
        </mxCell>
        <mxCell id="f2Rdbqj7meqRXwNr7irH-28" value="" style="endArrow=classic;html=1;rounded=0;" edge="1" parent="1">
          <mxGeometry width="50" height="50" relative="1" as="geometry">
            <mxPoint x="329" y="329" as="sourcePoint" />
            <mxPoint x="283" y="279" as="targetPoint" />
          </mxGeometry>
        </mxCell>
        <mxCell id="f2Rdbqj7meqRXwNr7irH-29" value="Наш &lt;font color=&quot;#ff0000&quot;&gt;&lt;b&gt;IP&lt;/b&gt;&lt;/font&gt; и &lt;b&gt;&lt;font color=&quot;#ff0000&quot;&gt;Port&lt;/font&gt;&lt;/b&gt;, на которых мы ожидаем получение доступа от &lt;b&gt;&lt;font color=&quot;#0000ff&quot;&gt;127.0.0.1&lt;/font&gt;&lt;/b&gt; на &lt;b&gt;&lt;font color=&quot;#ff00ff&quot;&gt;10.10.10.2&lt;/font&gt;&lt;/b&gt;" style="text;html=1;strokeColor=none;fillColor=none;align=center;verticalAlign=middle;whiteSpace=wrap;rounded=0;" vertex="1" parent="1">
          <mxGeometry x="-146" y="329" width="250" height="50" as="geometry" />
        </mxCell>
        <mxCell id="f2Rdbqj7meqRXwNr7irH-30" value="Внешние&amp;nbsp;&lt;b style=&quot;&quot;&gt;&lt;font color=&quot;#0000ff&quot;&gt;IP&lt;/font&gt;&lt;/b&gt; и &lt;b&gt;&lt;font color=&quot;#0000ff&quot;&gt;Port&lt;/font&gt;&lt;/b&gt;, от которых мы ожидаем получение доступа от &lt;b&gt;&lt;font color=&quot;#ff0000&quot;&gt;127.0.0.1&lt;/font&gt;&lt;/b&gt; на &lt;b&gt;10.10.10.1&lt;/b&gt;" style="text;html=1;strokeColor=none;fillColor=none;align=center;verticalAlign=middle;whiteSpace=wrap;rounded=0;" vertex="1" parent="1">
          <mxGeometry x="319" y="329" width="250" height="50" as="geometry" />
        </mxCell>
        <mxCell id="f2Rdbqj7meqRXwNr7irH-31" value="" style="endArrow=classic;html=1;rounded=0;entryX=0.252;entryY=0.22;entryDx=0;entryDy=0;entryPerimeter=0;" edge="1" parent="1" target="f2Rdbqj7meqRXwNr7irH-24">
          <mxGeometry width="50" height="50" relative="1" as="geometry">
            <mxPoint x="100" y="200" as="sourcePoint" />
            <mxPoint x="120" y="150" as="targetPoint" />
          </mxGeometry>
        </mxCell>
        <mxCell id="f2Rdbqj7meqRXwNr7irH-32" value="" style="endArrow=classic;html=1;rounded=0;entryX=0.425;entryY=0.22;entryDx=0;entryDy=0;entryPerimeter=0;" edge="1" parent="1">
          <mxGeometry width="50" height="50" relative="1" as="geometry">
            <mxPoint x="330" y="200" as="sourcePoint" />
            <mxPoint x="282.00000000000045" y="250" as="targetPoint" />
          </mxGeometry>
        </mxCell>
        <mxCell id="f2Rdbqj7meqRXwNr7irH-33" value="Через что на Kali можно будет обратиться к веб-серверу" style="text;html=1;strokeColor=none;fillColor=none;align=center;verticalAlign=middle;whiteSpace=wrap;rounded=0;" vertex="1" parent="1">
          <mxGeometry x="-5" y="160" width="190" height="30" as="geometry" />
        </mxCell>
        <mxCell id="f2Rdbqj7meqRXwNr7irH-34" value="Доступ к чему мы хотим получить" style="text;html=1;strokeColor=none;fillColor=none;align=center;verticalAlign=middle;whiteSpace=wrap;rounded=0;" vertex="1" parent="1">
          <mxGeometry x="240" y="160" width="190" height="30" as="geometry" />
        </mxCell>
        <mxCell id="f2Rdbqj7meqRXwNr7irH-35" value="&lt;b&gt;*Небольшое примечание&lt;/b&gt;: &lt;font color=&quot;#0000ff&quot;&gt;&lt;b&gt;remote_ip&lt;/b&gt;&lt;/font&gt; и &lt;b&gt;&lt;font color=&quot;#ff00ff&quot;&gt;victim-IP&lt;/font&gt;&lt;/b&gt; могут как совпадать, так и не совсем, как в нашем текущем примере" style="text;html=1;strokeColor=none;fillColor=none;align=center;verticalAlign=middle;whiteSpace=wrap;rounded=0;" vertex="1" parent="1">
          <mxGeometry x="30" y="600" width="370" height="70" as="geometry" />
        </mxCell>
      </root>
    </mxGraphModel>
  </diagram>
</mxfile>
